# AST/ASF file generated using VICON BodyLanguage
# -----------------------------------------------
:version 1.10
:name VICON
:units
  mass 1.0
  length 0.45
  angle deg
:documentation
   .ast/.asf automatically generated from VICON data using
   VICON BodyBuilder and BodyLanguage model FoxedUp or BRILLIANT.MOD
:root
   order TX TY TZ RX RY RZ
   axis XYZ
   position 0 0 0  
   orientation 0 0 0 
:bonedata
  begin
     id 1 
     name lhipjoint
     direction 0.621563 -0.714088 0.322083 
     length 2.21591 
     axis 0 0 0  XYZ
  end
  begin
     id 2 
     name lfemur
     direction 0.34202 -0.939693 0  
     length 6.84027  
     axis 0 0 20  XYZ
    dof rx ry rz
    limits (-160.0 20.0)
           (-70.0 70.0)
           (-60.0 70.0)
  end
  begin
     id 3 
     name ltibia
     direction 0.34202 -0.939693 0   
     length 6.74005   
     axis 0 0 20   XYZ
    dof rx
    limits (-10.0 170.0)
  end
  begin
     id 4 
     name lfoot
     direction 0.0348332 -0.0960526 0.994767   
     length 1.54672   
     axis -90 7.62852e-016 20   XYZ
    dof rx rz
    limits (-45.0 90.0)
           (-70.0 20.0)
  end
  begin
     id 5 
     name ltoes
     direction 1.53538e-011 -4.22089e-011 1   
     length 0.792077   
     axis -90 7.62852e-016 20   XYZ
    dof rx
    limits (-90.0 20.0)
  end
  begin
     id 6 
     name rhipjoint
     direction -0.648389 -0.693984 0.313015   
     length 2.2801  
     axis 0 0 0  XYZ 
  end
  begin
     id 7 
     name rfemur
     direction -0.34202 -0.939693 0   
     length 6.62341   
     axis 0 0 -20   XYZ
    dof rx ry rz
    limits (-160.0 20.0)
           (-70.0 70.0)
           (-70.0 60.0)
  end
  begin
     id 8 
     name rtibia
     direction -0.34202 -0.939693 0   
     length 6.63811   
     axis 0 0 -20   XYZ
    dof rx
    limits (-10.0 170.0)
 end
 begin
     id 9 
     name rfoot
     direction -0.0578404 -0.158915 0.985596   
     length 1.64992  
     axis -90 -7.62852e-016 -20   XYZ
    dof rx rz
    limits (-45.0 90.0)
           (-20.0 70.0)
  end
  begin
     id 10 
     name rtoes
     direction -1.53571e-011 -4.21911e-011 1   
     length 0.839909   
     axis -90 -7.62852e-016 -20   XYZ
    dof rx
    limits (-90.0 20.0)
  end
  begin
     id 11 
     name lowerback
     direction 0.000554472 0.999997 -0.00226605   
     length 1.81878   
     axis 0 0 0   XYZ
    dof rx ry rz
    limits (-20.0 45.0)
           (-30.0 30.0)
           (-30.0 30.0)
  end
  begin
     id 12 
     name upperback
     direction 0.00177008 0.999761 -0.021771   
     length 1.81977   
     axis 0 0 0   XYZ
    dof rx ry rz
    limits (-20.0 45.0)
           (-30.0 30.0)
           (-30.0 30.0)
  end
  begin
     id 13 
     name thorax
     direction 0.00134147 0.999799 -0.0200243   
     length 1.81422   
     axis 0 0 0   XYZ
    dof rx ry rz
    limits (-20.0 45.0)
           (-30.0 30.0)
           (-30.0 30.0)
  end
  begin
     id 14 
     name lowerneck
     direction -0.0819714 0.987506 0.134583   
     length 1.68295   
     axis 0 0 0   XYZ
    dof rx ry rz
    limits (-20.0 45.0)
           (-30.0 30.0)
           (-30.0 30.0)
  end
  begin
     id 15 
     name upperneck
     direction 0.0867129 0.969666 -0.228538   
     length 1.71188   
     axis 0 0 0   XYZ
    dof rx ry rz
    limits (-20.0 45.0)
           (-30.0 30.0)
           (-30.0 30.0)
  end
  begin
     id 16
     name head
     direction 0.023699 0.995021 -0.0968101  
     length 1.73365  
     axis 0 0 0   XYZ
    dof rx ry rz
    limits (-20.0 45.0)
           (-30.0 30.0)
           (-30.0 30.0)
  end
  begin
     id 17 
     name lclavicle
     direction 0.912847 0.398248 0.090054  
     length 3.56518  
     axis 0 0 0   XYZ
    dof ry rz
    limits (-20.0 10.0)
           (0.0 20.0)
  end
  begin
     id 18 
     name lhumerus
     direction 1 -4.48961e-011 -4.05442e-028   
     length 4.05444   
     axis 180 -30 -90   XYZ
    dof rx ry rz
    limits (-60.0 90.0)
           (-90.0 90.0)
           (-90.0 90.0)
  end
  begin
     id 19
     name lradius
     direction 1 -4.4897e-011 1.54979e-027   
     length 3.21205   
     axis 180 -30 -90   XYZ
    dof rx
    limits (-10.0 170.0)
  end
  begin
     id 20
     name lwrist
     direction 1 -4.48979e-011 1.55564e-027   
     length 1.60602   
     axis -1.61768e-015 90 90   XYZ
    dof ry
    limits (-180.0 0.0)
 end
  begin
     id 21 
     name lhand
     direction 1 -4.48877e-011 3.11128e-027   
     length 0.707407   
     axis -1.98526e-015 90 90   XYZ
    dof rx rz
    limits (-90.0 90.0)
           (-45.0 45.0)
  end
  begin
     id 22 
     name lfingers
     direction 1 -4.49016e-011 6.22255e-027   
     length 0.57033   
     axis -3.97052e-015 90 90   XYZ
    dof rx
    limits (0.0 90.0)
  end
  begin
     id 23
     name lthumb
     direction 0.707107 -6.35011e-011 0.707107   
     length 0.818883   
     axis -90 45 2.85299e-015   XYZ
    dof rx rz
    limits (-45.0 45.0)
           (-45.0 45.0)
  end
  begin
     id 24 
     name rclavicle
     direction -0.930415 0.353791 0.0957082   
     length 3.54688  
     axis 0 0 0   XYZ 
    dof ry rz
    limits (-10.0 20.0)
           (-20.0 0.0)
  end
  begin
     id 25 
     name rhumerus
     direction -1 -4.48952e-011 -8.4136e-018  
     length 3.74048   
     axis 180 30 90   XYZ
    dof rx ry rz
    limits (-90.0 60.0)
           (-90.0 90.0)
           (-90.0 90.0)
  end
  begin
     id 26 
     name rradius
     direction -1 -4.48964e-011 1.66692e-027   
     length 3.1603   
     axis 180 30 90   XYZ
    dof rx
    limits (-10.0 170.0)
  end
  begin
     id 27 
     name rwrist
     direction -1 -4.49008e-011 1.55564e-027   
     length 1.58015   
     axis -1.61768e-015 -90 -90   XYZ
    dof ry
    limits (-180.0 0.0)
  end
  begin
     id 28
     name rhand
     direction -1 -4.48922e-011 3.11128e-027   
     length 0.717028   
     axis -1.98526e-015 -90 -90   XYZ
    dof rx rz
    limits (-90.0 90.0)
           (-45.0 45.0)
  end
  begin
     id 29
     name rfingers
     direction -1 -4.49002e-011 6.22255e-027   
     length 0.578086   
     axis -3.97052e-015 -90 -90   XYZ
    dof rx
    limits (0.0 90.0)
  end
  begin
     id 30
     name rthumb
     direction -0.707107 -6.34899e-011 0.707107   
     length 0.83002   
     axis -90 -45 -2.85299e-015   XYZ
    dof rx rz
    limits (-45.0 45.0)
           (-45.0 45.0)
  end
:hierarchy
  begin
    root lhipjoint rhipjoint lowerback
    lhipjoint lfemur
    lfemur ltibia
    ltibia lfoot
    lfoot ltoes
    rhipjoint rfemur
    rfemur rtibia
    rtibia rfoot
    rfoot rtoes
    lowerback upperback
    upperback thorax
    thorax lowerneck lclavicle rclavicle
    lowerneck upperneck
    upperneck head
    lclavicle lhumerus
    lhumerus lradius
    lradius lwrist
    lwrist lhand lthumb
    lhand lfingers
    rclavicle rhumerus
    rhumerus rradius
    rradius rwrist
    rwrist rhand rthumb
    rhand rfingers
  end

#!OML:ASF G:\acrobat\cartwheel_test\acrobat_wednesday\Session 1\acrobatwednesday.ASF
:FULLY-SPECIFIED
:DEGREES
99
root 18.867 16.4669 0.350939 92.7262 86.3027 85.4281
lowerback -8.20202 -0.109892 -1.76426
upperback -0.581816 0.057326 -0.450636
thorax 3.99633 0.0107863 0.532504
lowerneck -24.9124 -4.19222 -4.44162
upperneck 35.7288 -3.83286 0.627291
head 17.4582 -1.8142 0.294456
rclavicle -8.44835e-016 1.15295e-014
rhumerus -30.9425 -29.2443 -74.8731
rradius 17.6555
rwrist 53.6639
rhand -22.4979 8.24992
rfingers 7.12502
rthumb 3.92793 -21.6936
lclavicle -8.44835e-016 1.15295e-014
lhumerus -23.9556 21.6783 76.7381
lradius 10.8056
lwrist -15.6347
lhand -16.8864 -13.8641
lfingers 7.12502
lthumb 9.34492 15.9087
rfemur 4.1992 15.2493 20.5185
rtibia -2.24077
rfoot -29.7649 17.6241
rtoes 7.86013
lfemur -1.11496 -4.05176 -25.0312
ltibia 4.5971
lfoot 14.8713 -7.04565
ltoes -38.2794
100
root 18.8255 16.4874 0.350493 96.4585 86.2796 89.4177
lowerback -7.49987 -0.157656 -1.78063
upperback -0.448459 -0.0229594 -0.466806
thorax 3.74313 -0.0298351 0.516051
lowerneck -25.1514 -3.73511 -4.17719
upperneck 36.4685 -3.17 0.580234
head 17.8881 -1.49882 0.376273
rclavicle -5.8393e-016 -1.23246e-014
rhumerus -30.1816 -29.751 -74.2949
rradius 17.3002
rwrist 55.0322
rhand -22.5267 8.73512
rfingers 7.12502
rthumb 3.90017 -21.2089
lclavicle -5.8393e-016 -1.23246e-014
lhumerus -23.2128 26.3002 74.2095
lradius 10.1432
lwrist -22.4658
lhand -16.7267 -14.7288
lfingers 7.12502
lthumb 9.49904 15.0371
rfemur 3.97108 14.8724 20.4271
rtibia -1.71895
rfoot -29.8334 17.0639
rtoes 8.12802
lfemur -1.27724 -3.88887 -24.9872
ltibia 5.0152
lfoot 14.1424 -7.29842
ltoes -38.4327
101
root 18.7699 16.5163 0.351087 101.376 86.246 94.5734
lowerback -6.62476 -0.224827 -1.77115
upperback -0.317522 -0.134433 -0.507718
thorax 3.39046 -0.0845862 0.458477
lowerneck -25.2509 -3.40527 -4.01167
upperneck 37.0815 -2.68794 0.596797
head 18.2363 -1.26432 0.468995
rclavicle 2.00027e-015 -3.18055e-015
rhumerus -29.4604 -30.7563 -72.9404
rradius 16.7845
rwrist 56.6037
rhand -21.5394 11.1457
rfingers 7.12502
rthumb 4.85349 -18.7787
lclavicle 2.00027e-015 -3.18055e-015
lhumerus -21.8718 27.9305 72.5402
lradius 9.84694
lwrist -25.107
lhand -16.9902 -14.6491
lfingers 7.12502
lthumb 9.24482 15.1282
rfemur 3.59349 14.5566 20.3757
rtibia -0.988514
rfoot -30.1165 16.3949
rtoes 8.43901
lfemur -1.55819 -3.77279 -24.8968
ltibia 5.41683
lfoot 13.2161 -7.8294
ltoes -39.0244
102
root 18.7057 16.5578 0.353124 105.856 86.2317 99.2471
lowerback -5.78943 -0.25584 -1.68257
upperback -0.0961771 -0.199175 -0.598641
thorax 3.15124 -0.115956 0.311198
lowerneck -25.3149 -3.19077 -3.91146
upperneck 37.5643 -2.42586 0.764574
head 18.5208 -1.10723 0.596084
rclavicle -3.97569e-016 -1.15295e-014
rhumerus -28.9501 -32.7614 -70.5781
rradius 16.2612
rwrist 58.6165
rhand -21.5271 12.565
rfingers 7.12502
rthumb 4.86536 -17.3591
lclavicle -3.97569e-016 -1.15295e-014
lhumerus -20.4285 29.331 70.2729
lradius 9.92545
lwrist -25.9939
lhand -17.368 -16.1733
lfingers 7.12502
lthumb 8.88026 13.6198
rfemur 3.16591 14.4927 20.3885
rtibia -0.30523
rfoot -30.9406 15.1997
rtoes 9.64343
lfemur -1.92005 -3.6075 -24.7124
ltibia 5.73055
lfoot 12.2467 -8.58052
ltoes -39.3585
103
root 18.6333 16.6178 0.358342 109.502 86.1786 102.975
lowerback -5.02446 -0.258352 -1.66437
upperback 0.192708 -0.216654 -0.704588
thorax 3.0196 -0.125361 0.192538
lowerneck -25.326 -3.08295 -3.92104
upperneck 37.8787 -2.3646 1.10232
head 18.711 -1.02354 0.777916
rclavicle -2.45996e-015 -1.45113e-014
rhumerus -28.3787 -33.8942 -67.9644
rradius 16.0121
rwrist 59.2188
rhand -21.3222 12.4093
rfingers 7.12502
rthumb 5.06324 -17.5102
lclavicle -2.45996e-015 -1.45113e-014
lhumerus -18.9499 30.5832 67.4333
lradius 10.277
lwrist -25.3955
lhand -19.8907 -16.0533
lfingers 7.12502
lthumb 6.44537 13.8286
rfemur 2.70192 14.8806 20.3697
rtibia 0.0930697
rfoot -32.4704 13.6862
rtoes 10.3988
lfemur -2.40365 -3.19808 -24.492
ltibia 5.97812
lfoot 10.9771 -9.52693
ltoes -38.3826
104
root 18.5488 16.7002 0.363288 112.972 86.0097 106.358
lowerback -4.31027 -0.27028 -1.85762
upperback 0.503346 -0.233484 -0.773864
thorax 2.93933 -0.13779 0.230351
lowerneck -25.1509 -3.0586 -3.98951
upperneck 37.9898 -2.43783 1.47312
head 18.742 -0.999829 0.954803
rclavicle 7.70291e-016 -2.76311e-014
rhumerus -28.1857 -36.5431 -63.48
rradius 15.3507
rwrist 60.8081
rhand -22.0124 11.7866
rfingers 7.12502
rthumb 4.39676 -18.1478
lclavicle 7.70291e-016 -2.76311e-014
lhumerus -17.0903 29.3689 64.9582
lradius 10.8004
lwrist -21.3886
lhand -20.9853 -15.9578
lfingers 7.12502
lthumb 5.38851 13.9536
rfemur 1.85526 14.8308 20.012
rtibia 0.584924
rfoot -33.6654 11.8165
rtoes 10.3306
lfemur -3.14863 -2.7575 -24.3544
ltibia 6.30037
lfoot 9.3953 -10.8157
ltoes -37.2991
105
root 18.4488 16.804 0.363846 118.322 85.932 111.48
lowerback -3.57623 -0.31216 -1.91884
upperback 0.862929 -0.300146 -0.767306
thorax 2.8985 -0.173905 0.269265
lowerneck -24.7616 -3.07432 -4.00257
upperneck 37.931 -2.57237 1.74712
head 18.6171 -1.0095 1.05993
rclavicle -4.32357e-015 -1.55052e-014
rhumerus -27.7447 -37.5886 -59.0018
rradius 14.8327
rwrist 60.746
rhand -23.0587 10.611
rfingers 7.12502
rthumb 3.38641 -19.3419
lclavicle -4.32357e-015 -1.55052e-014
lhumerus -15.4365 26.99 61.9843
lradius 11.6265
lwrist -15.6882
lhand -22.0168 -15.4715
lfingers 7.12502
lthumb 4.39259 14.463
rfemur 0.483587 13.9446 19.5625
rtibia 1.48103
rfoot -34.0745 9.59491
rtoes 10.7548
lfemur -4.25465 -2.59802 -24.0358
ltibia 6.86827
lfoot 7.82761 -12.2882
ltoes -37.5292
106
root 18.3278 16.9243 0.360022 125.72 85.9593 118.457
lowerback -2.80487 -0.36941 -1.70376
upperback 1.30096 -0.398098 -0.728639
thorax 2.91588 -0.221017 0.18555
lowerneck -24.2365 -3.09015 -3.93408
upperneck 37.6494 -2.73872 1.96913
head 18.3274 -1.03302 1.11404
rclavicle -4.32357e-015 5.56597e-015
rhumerus -27.6986 -39.2876 -53.2761
rradius 14.483
rwrist 60.1284
rhand -22.4651 10.6987
rfingers 7.12502
rthumb 3.95964 -19.2442
lclavicle -4.32357e-015 5.56597e-015
lhumerus -14.0356 24.1185 58.2423
lradius 12.6115
lwrist -9.70287
lhand -23.0749 -14.9464
lfingers 7.12502
lthumb 3.37076 15.0067
rfemur -1.329 12.8052 19.1838
rtibia 2.55113
rfoot -34.3354 7.15704
rtoes 11.4295
lfemur -5.90144 -2.53882 -23.477
ltibia 7.81939
lfoot 6.15608 -13.655
ltoes -37.3079
107
root 18.1852 17.0538 0.353098 131.067 85.7866 123.208
lowerback -1.94352 -0.430605 -1.6427
upperback 1.8588 -0.487777 -0.728385
thorax 3.00625 -0.265099 0.150526
lowerneck -23.7434 -3.082 -3.90444
upperneck 37.1654 -2.86618 2.20688
head 17.9367 -1.05174 1.18475
rclavicle 1.63997e-015 -1.23246e-014
rhumerus -27.4186 -38.5773 -47.8554
rradius 14.4167
rwrist 57.6
rhand -22.6134 9.53472
rfingers 7.12502
rthumb 3.81644 -20.4109
lclavicle 1.63997e-015 -1.23246e-014
lhumerus -12.8619 20.725 53.8064
lradius 13.6609
lwrist -3.94992
lhand -23.9702 -13.8508
lfingers 7.12502
lthumb 2.5061 16.1143
rfemur -3.56881 11.379 18.4258
rtibia 3.81246
rfoot -34.3303 4.52062
rtoes 11.6861
lfemur -8.04268 -2.07427 -23.1564
ltibia 9.13174
lfoot 4.20914 -14.8558
ltoes -36.63
